# xmcd
#
# Track frame offsets:
#	150
#	21241
#	36669
#	54002
#	71945
#	96363
#	108521
#	126499
#	143602
#	163760
#	177861
#	190531
#	220982
#	248445
#	267853
#	268303
#	268753
#
# Disc length: 3587 seconds
#
# Revision: 0
# Processed by: cddbd v1.5.1PL0 Copyright (c) Steve Scherf et al.
# Submitted via: dBpowerAMP V4.0
#
DISCID=030e0111
DTITLE=Live - Throwing Copper
DYEAR=1900
DGENRE=Rock
TTITLE0=The Dam At Otter Creek
TTITLE1=Selling The Drama
TTITLE2=I Alone
TTITLE3=Iris
TTITLE4=Lightning Crashes
TTITLE5=Top
TTITLE6=All Over You
TTITLE7=Shit Towne
TTITLE8=T.B.D.
TTITLE9=Stage
TTITLE10=Waitress
TTITLE11=Pillar Of Davidson
TTITLE12=White, Discussion
TTITLE13=Horse
TTITLE14=1
TTITLE15=2
TTITLE16=3
EXTD=
EXTT0=
EXTT1=
EXTT2=
EXTT3=
EXTT4=
EXTT5=
EXTT6=
EXTT7=
EXTT8=
EXTT9=
EXTT10=
EXTT11=
EXTT12=
EXTT13=
EXTT14=
EXTT15=
EXTT16=
PLAYORDER=
